<svg xmlns="http://www.w3.org/2000/svg" viewBox="0 0 640.71 195.48"><defs><style>.cls-1,.cls-2{fill:#6956b2;}.cls-2{stroke:#6956b2;stroke-miterlimit:10;}</style></defs><g id="Layer_2" data-name="Layer 2"><g id="Layer_1-2" data-name="Layer 1"><path class="cls-1" d="M222.06,64.37h12.46q8.08,0,11.45,1.81t4.31,6.73q.93,4.92.94,16.91t-.94,16.91q-.94,4.92-4.31,6.74t-11.45,1.81H222.06Zm11.72,47q6.93,0,9.43-1.08c1.66-.71,2.75-2.43,3.26-5.14s.78-7.82.78-15.32-.27-12.48-.81-15.24-1.64-4.5-3.3-5.22-4.78-1.07-9.36-1.07H226v43.07Z"/><path class="cls-1" d="M264.62,65.85V60.3h4.17v5.55Zm.2,49.43V77.54h3.77v37.74Z"/><path class="cls-1" d="M298.12,115.61a38.64,38.64,0,0,1-4.34.26c-3.69,0-6.39-.64-8.12-1.92a9.09,9.09,0,0,1-3.36-5.81,64.18,64.18,0,0,1-.78-11.66,57,57,0,0,1,.94-12,9.14,9.14,0,0,1,3.51-5.8c1.7-1.16,4.24-1.74,7.6-1.74a35.93,35.93,0,0,1,4.28.26,28.14,28.14,0,0,1,3.67.62v3.56a32.82,32.82,0,0,0-7.14-.82c-2.69,0-4.67.42-5.92,1.26a6.62,6.62,0,0,0-2.53,4.44,56.1,56.1,0,0,0-.64,10.06,58.62,58.62,0,0,0,.64,10.33q.65,3.21,2.53,4.4t6.06,1.18a29.24,29.24,0,0,0,3.8-.26,28.46,28.46,0,0,0,3.47-.62v3.55A20.69,20.69,0,0,1,298.12,115.61Z"/><path class="cls-1" d="M337.35,97.81H315.93a47,47,0,0,0,.64,9.29,5.72,5.72,0,0,0,2.73,4q2.08,1.14,6.87,1.14c1.52,0,3.22-.08,5.08-.26a44.3,44.3,0,0,0,4.95-.7v3.55a32.18,32.18,0,0,1-4.78.74q-3,.3-5.93.3c-4,0-6.91-.56-8.75-1.66a8.37,8.37,0,0,1-3.67-5.59,58.46,58.46,0,0,1-.91-12.14,70.82,70.82,0,0,1,.74-12.06,8.27,8.27,0,0,1,3.5-5.66q2.76-1.82,9-1.81c3.72,0,6.42.58,8.08,1.74a8.11,8.11,0,0,1,3.16,5.54,77,77,0,0,1,.68,12.1ZM319,81.57a5.2,5.2,0,0,0-2.49,3.78,47.38,47.38,0,0,0-.61,9.13h17.71V93.37a35.53,35.53,0,0,0-.71-8.47,5.08,5.08,0,0,0-2.39-3.48,12.32,12.32,0,0,0-5.25-.85C322.37,80.57,320.29,80.9,319,81.57Z"/><path class="cls-1" d="M372.16,114q-3.24-1.84-4.18-6.92T367,89.82q0-12.21.94-17.28c.63-3.38,2-5.68,4.18-6.92s5.83-1.85,11-1.85,9,.62,11.11,1.85,3.55,3.54,4.18,6.92.94,9.14.94,17.28-.31,13.9-.94,17.28-2,5.69-4.18,6.92-5.85,1.85-11.11,1.85S374.31,115.25,372.16,114Zm19.53-3.18q2.28-1.11,3-5.4t.74-15.62q0-11.32-.74-15.61t-3-5.4q-2.29-1.11-8.49-1.11c-4.08,0-6.89.37-8.41,1.11s-2.54,2.54-3,5.4S371,82.27,371,89.82s.25,12.76.75,15.62,1.5,4.66,3,5.4,4.33,1.11,8.41,1.11S390.16,111.58,391.69,110.84Z"/><path class="cls-1" d="M413,77.54h3.24l.27,7.47h.26c.68-3.06,1.88-5.16,3.61-6.32A11.89,11.89,0,0,1,427.17,77v4.21a10.22,10.22,0,0,0-6.36,1.74A9.1,9.1,0,0,0,417.68,88a36.36,36.36,0,0,0-.88,8.84v18.43H413Z"/><path class="cls-1" d="M475,115.65c-1.73.15-3.29.22-4.68.22q-7.14,0-10.37-1.85t-4.38-7.14q-1.14-5.3-1.14-17.06t1.14-17q1.16-5.3,4.38-7.18t10.37-1.89a39,39,0,0,1,4.65.3c1.66.2,3.05.42,4.17.67v3.62a53.66,53.66,0,0,0-7.94-.66q-6.19,0-8.69,1.36t-3.3,5.7q-.81,4.33-.81,15.06c0,7.16.27,12.17.81,15.06s1.64,4.79,3.3,5.7S467,112,471.15,112a49,49,0,0,0,8.21-.67v3.78A41.45,41.45,0,0,1,475,115.65Z"/><path class="cls-1" d="M512.49,92.78a37.35,37.35,0,0,0-.6-8,4.62,4.62,0,0,0-2.26-3.26,13.2,13.2,0,0,0-5.42-.81q-4.24,0-6.16,1.81a8,8,0,0,0-2.39,4.74,56.33,56.33,0,0,0-.47,8.47v19.54h-3.77v-55h3.77V82.57h.27a8,8,0,0,1,3.16-4.07c1.53-1,3.84-1.55,6.94-1.55s5.34.48,6.87,1.44a7.12,7.12,0,0,1,3.06,4.48,36.41,36.41,0,0,1,.77,8.58v23.83h-3.77Z"/><path class="cls-1" d="M533.23,114.35A7.28,7.28,0,0,1,529.8,109a73.48,73.48,0,0,1-.74-12.55,73.82,73.82,0,0,1,.74-12.61,7.42,7.42,0,0,1,3.43-5.37c1.8-1,4.76-1.55,8.89-1.55s7.15.51,8.93,1.55a7.57,7.57,0,0,1,3.43,5.37,72,72,0,0,1,.77,12.61,71.68,71.68,0,0,1-.77,12.55,7.42,7.42,0,0,1-3.43,5.32c-1.78,1-4.75,1.52-8.93,1.52S535,115.36,533.23,114.35Zm15.49-3.22a5.26,5.26,0,0,0,2.33-4,85.59,85.59,0,0,0,.43-10.62,86.4,86.4,0,0,0-.43-10.65,5.41,5.41,0,0,0-2.33-4.11c-1.26-.76-3.46-1.15-6.6-1.15s-5.33.39-6.56,1.15a5.38,5.38,0,0,0-2.29,4.07,83.82,83.82,0,0,0-.44,10.69,83,83,0,0,0,.44,10.62,5.26,5.26,0,0,0,2.29,4q1.85,1.11,6.56,1.11T548.72,111.13Z"/><path class="cls-1" d="M568,65.85V60.3h4.18v5.55Zm.2,49.43V77.54H572v37.74Z"/><path class="cls-1" d="M601.48,115.61a38.64,38.64,0,0,1-4.34.26q-5.52,0-8.12-1.92a9.09,9.09,0,0,1-3.36-5.81,64.18,64.18,0,0,1-.78-11.66,57,57,0,0,1,.94-12,9.14,9.14,0,0,1,3.51-5.8c1.7-1.16,4.24-1.74,7.6-1.74a35.93,35.93,0,0,1,4.28.26,27.85,27.85,0,0,1,3.67.62v3.56a32.82,32.82,0,0,0-7.14-.82c-2.69,0-4.67.42-5.92,1.26a6.62,6.62,0,0,0-2.53,4.44,57.06,57.06,0,0,0-.64,10.06,59.63,59.63,0,0,0,.64,10.33q.65,3.21,2.53,4.4t6.06,1.18a29.12,29.12,0,0,0,3.8-.26,28.46,28.46,0,0,0,3.47-.62v3.55A20.69,20.69,0,0,1,601.48,115.61Z"/><path class="cls-1" d="M640.71,97.81H619.29a47.82,47.82,0,0,0,.64,9.29,5.72,5.72,0,0,0,2.73,4q2.08,1.14,6.87,1.14c1.52,0,3.22-.08,5.08-.26a44.3,44.3,0,0,0,4.95-.7v3.55a32.18,32.18,0,0,1-4.78.74q-3,.3-5.93.3c-4,0-6.91-.56-8.75-1.66a8.37,8.37,0,0,1-3.67-5.59,58.46,58.46,0,0,1-.91-12.14,70.82,70.82,0,0,1,.74-12.06,8.31,8.31,0,0,1,3.5-5.66q2.76-1.82,9-1.81c3.72,0,6.42.58,8.08,1.74A8.11,8.11,0,0,1,640,84.23a77,77,0,0,1,.68,12.1ZM622.39,81.57a5.2,5.2,0,0,0-2.49,3.78,47.38,47.38,0,0,0-.61,9.13H637V93.37a36.2,36.2,0,0,0-.7-8.47,5.12,5.12,0,0,0-2.4-3.48,12.32,12.32,0,0,0-5.25-.85C625.73,80.57,623.65,80.9,622.39,81.57Z"/><path class="cls-2" d="M94.88.53.5,28.74.89,153l94,42,88-37.75V33Zm.6,192L95.34,131h-2l.14,61.1L2.88,151.66,2.51,30.23l92.3-27.6L178.57,33.5,86.57,58l.52,1.94,93.75-25V155.86Z"/><path class="cls-2" d="M32.89,38.1a32.19,32.19,0,0,1,2.91,14,32.19,32.19,0,0,1-2.91,14A18.61,18.61,0,0,1,30,70.62H17.62V35.14h0v-1.5H30A18.81,18.81,0,0,1,32.89,38.1Zm-4,30.35a19.81,19.81,0,0,0,3.32-7,33.57,33.57,0,0,0,1.21-9.28q-.08-10.18-4.53-16.32H19.79V68.45Z"/><path class="cls-2" d="M45.25,44.19a.45.45,0,0,1,.51.52v1.65H43.6V44.19Zm-1.65,5.1h2.16V70.62H43.6Z"/><path class="cls-2" d="M62.14,68.73a7.94,7.94,0,0,0,6.68-3.35l2.12.67a10.56,10.56,0,0,1-2.12,2.4,10.12,10.12,0,0,1-6.68,2.42h0a10,10,0,0,1-6.65-2.42,10.19,10.19,0,0,1-2.14-2.4V53.86a10.19,10.19,0,0,1,2.14-2.4A10.5,10.5,0,0,1,71,53.86l-2.14.64a8.33,8.33,0,0,0-13.35,0V65.38A7.88,7.88,0,0,0,62.14,68.73Z"/><path class="cls-2" d="M86.84,58.53l7-2c0-4-5.47-5.38-7.81-5.38a7.94,7.94,0,0,0-6.68,3.35V65.38a8.34,8.34,0,0,0,13.36,0l2.11.67a10.52,10.52,0,0,1-2.11,2.4A10.14,10.14,0,0,1,86,70.87h0a10,10,0,0,1-6.65-2.42,10.41,10.41,0,0,1-2.14-2.4V53.86a10.41,10.41,0,0,1,2.14-2.4,10.51,10.51,0,0,1,15.47,2.35l1,2.72-8,3Z"/><path class="cls-2" d="M33.79,76.39a10.41,10.41,0,0,1,2.14,2.4v27.8A10.72,10.72,0,0,1,33.79,109a10.64,10.64,0,0,1-13.51,0,10.48,10.48,0,0,1-2.14-2.42V78.79A10.64,10.64,0,0,1,27,74,10.26,10.26,0,0,1,33.79,76.39Zm0,3.07A8,8,0,0,0,27,76.08a8,8,0,0,0-6.75,3.38v26.46A8,8,0,0,0,27,109.29a8.05,8.05,0,0,0,6.76-3.37Z"/><path class="cls-2" d="M27.16,149.85a8.07,8.07,0,0,0,6.73-3.38l2.14.67a10.53,10.53,0,0,1-2.14,2.43A10.23,10.23,0,0,1,27.16,152h0a10.3,10.3,0,0,1-6.73-2.42,10.53,10.53,0,0,1-2.14-2.43V119.35a10.48,10.48,0,0,1,2.14-2.42,10.6,10.6,0,0,1,13.51,0,10.72,10.72,0,0,1,2.14,2.42l-2.14.67a8.07,8.07,0,0,0-6.76-3.38A8,8,0,0,0,20.41,120v26.45A8.08,8.08,0,0,0,27.16,149.85Z"/><path class="cls-2" d="M58.65,132.6a10.63,10.63,0,0,1,2.17,2.48v16.65H58.65v-16a8.52,8.52,0,0,0-13.66,0v16H42.82V114.79H45V132.6a10.75,10.75,0,0,1,13.66,0Z"/><path class="cls-2" d="M83.47,132.58a10.21,10.21,0,0,1,2.14,2.4v12.19a10.41,10.41,0,0,1-2.14,2.4A10.09,10.09,0,0,1,76.82,152h0a10.12,10.12,0,0,1-6.68-2.42,10.41,10.41,0,0,1-2.14-2.4V135a10.21,10.21,0,0,1,2.14-2.4,10.4,10.4,0,0,1,13.36,0Zm0,3a8.34,8.34,0,0,0-13.36,0V146.5a8.34,8.34,0,0,0,13.36,0Z"/><path class="cls-2" d="M94.77,125.31a.46.46,0,0,1,.52.51v1.65H93.12v-2.16Z"/><path class="cls-2" d="M111.67,149.85a8,8,0,0,0,6.67-3.35l2.12.67a10.33,10.33,0,0,1-2.12,2.4,10.15,10.15,0,0,1-6.67,2.42h0a10.08,10.08,0,0,1-6.65-2.42,10.19,10.19,0,0,1-2.14-2.4V135a10.52,10.52,0,0,1,17.64,0l-2.15.64a8.33,8.33,0,0,0-13.35,0V146.5A7.93,7.93,0,0,0,111.67,149.85Z"/><path class="cls-2" d="M136.25,140.05l5.26-5.26a8,8,0,0,0-6-2.52,7.91,7.91,0,0,0-6.67,3.35V146.5a8.33,8.33,0,0,0,13.35,0l2.11.67a10.28,10.28,0,0,1-2.11,2.4,10.17,10.17,0,0,1-6.68,2.42h0a10.58,10.58,0,0,1-8.79-4.82V135a9.79,9.79,0,0,1,2.14-2.4,10.53,10.53,0,0,1,15.46,2.34l0,0-6.62,6.63Z"/><path class="cls-2" d="M45.22,92.48a7.25,7.25,0,0,1,6.23-3.39V86.94a9.06,9.06,0,0,0-6.23,2.43,10.39,10.39,0,0,0-2,2.44v16.53h2Z"/></g></g></svg>