<?xml version="1.0" encoding="UTF-8"?>
<svg id="Layer_2" data-name="Layer 2" xmlns="http://www.w3.org/2000/svg" viewBox="0 0 182.34 194.4">
  <defs>
    <style>
      .cls-1 {
        fill: #292b34;
        stroke-width: 0px;
      }
    </style>
  </defs>
  <g id="Layer_1-2" data-name="Layer 1">
    <g>
      <path class="cls-1" d="m94.38,0L0,28.22l.39,124.22,93.95,41.97,88-37.75V32.42L94.38,0Zm.6,191.95l-.14-61.44h-2l.14,61.1L2.38,151.14l-.38-121.43L94.31,2.11l83.75,30.87-91.99,24.48.51,1.93,93.76-24.95v120.9l-85.36,36.62Z"/>
      <g>
        <g>
          <path class="cls-1" d="m32.39,37.58c1.94,4.06,2.91,8.73,2.91,14.03s-.97,9.97-2.91,14.03c-.83,1.75-1.78,3.24-2.86,4.46h-12.4v-35.48h.03v-1.5h12.38c1.08,1.22,2.04,2.71,2.86,4.46Zm-3.97,30.35c1.39-1.75,2.5-4.1,3.33-7.04.83-2.97,1.23-6.07,1.21-9.28-.05-6.79-1.56-12.23-4.54-16.32h-9.13v32.64h9.13Z"/>
          <path class="cls-1" d="m44.75,43.66c.34,0,.52.17.52.52v1.65h-2.17v-2.17h1.65Zm-1.65,5.1h2.17v21.32h-2.17v-21.32Z"/>
          <path class="cls-1" d="m61.64,68.21c2.77,0,4.99-1.12,6.68-3.35l2.11.67c-.58.91-1.29,1.71-2.11,2.4-1.94,1.62-4.17,2.42-6.68,2.42h-.03c-2.51,0-4.73-.81-6.65-2.42-.84-.69-1.56-1.49-2.14-2.4v-12.2c.58-.91,1.3-1.71,2.14-2.4,1.93-1.62,4.15-2.42,6.68-2.42s4.75.81,6.68,2.42c.84.69,1.56,1.49,2.14,2.4l-2.14.64c-1.67-2.23-3.89-3.35-6.68-3.35s-5.01,1.12-6.68,3.35v10.88c1.67,2.23,3.89,3.35,6.68,3.35Z"/>
          <path class="cls-1" d="m86.34,58.01l7-2c0-4-5.48-5.38-7.81-5.38-2.78,0-5.01,1.12-6.68,3.35v10.88c1.67,2.23,3.89,3.35,6.68,3.35s4.99-1.12,6.68-3.35l2.11.67c-.58.91-1.29,1.71-2.11,2.4-1.94,1.62-4.17,2.42-6.68,2.42h-.03c-2.51,0-4.73-.81-6.65-2.42-.84-.69-1.56-1.49-2.14-2.4v-12.2c.58-.91,1.3-1.71,2.14-2.4,1.92-1.62,4.15-2.42,6.68-2.42s4.75.81,6.68,2.42c.83.67,1.53,1.45,2.11,2.35l1.02,2.73-8,3-1-1Z"/>
          <path class="cls-1" d="m33.29,75.87c.84.69,1.56,1.49,2.14,2.4v27.79c-.58.91-1.3,1.72-2.14,2.42-1.96,1.62-4.21,2.42-6.75,2.42s-4.8-.81-6.75-2.42c-.84-.7-1.56-1.51-2.14-2.42v-27.79c.58-.91,1.3-1.71,2.14-2.4,1.96-1.63,4.21-2.45,6.75-2.45s4.79.82,6.75,2.45Zm0,3.07c-1.68-2.25-3.94-3.38-6.75-3.38s-5.07,1.13-6.75,3.38v26.45c1.68,2.25,3.94,3.38,6.75,3.38s5.05-1.13,6.75-3.38v-26.45Z"/>
          <path class="cls-1" d="m26.66,149.32c2.8-.02,5.04-1.14,6.73-3.38l2.14.67c-.58.91-1.3,1.72-2.14,2.42-1.94,1.62-4.19,2.42-6.73,2.42h-.03c-2.53,0-4.77-.81-6.73-2.42-.84-.7-1.56-1.51-2.14-2.42v-27.79c.58-.91,1.3-1.72,2.14-2.42,1.96-1.62,4.21-2.42,6.75-2.42s4.79.81,6.75,2.42c.84.71,1.56,1.51,2.14,2.42l-2.14.67c-1.7-2.25-3.95-3.38-6.75-3.38s-5.07,1.13-6.75,3.38v26.45c1.68,2.23,3.94,3.36,6.75,3.38Z"/>
          <path class="cls-1" d="m58.15,132.08c.86.72,1.58,1.55,2.17,2.48v16.66h-2.17v-15.99c-1.7-2.29-3.98-3.43-6.83-3.43s-5.11,1.14-6.83,3.43v15.99h-2.17v-36.95h2.17v17.82c1.98-1.63,4.25-2.45,6.83-2.45s4.86.82,6.83,2.45Z"/>
          <path class="cls-1" d="m82.97,132.05c.84.69,1.56,1.49,2.14,2.4v12.2c-.58.91-1.3,1.71-2.14,2.4-1.92,1.62-4.14,2.42-6.65,2.42h-.03c-2.53,0-4.75-.81-6.68-2.42-.84-.69-1.56-1.49-2.14-2.4v-12.2c.58-.91,1.3-1.71,2.14-2.4,1.93-1.62,4.15-2.42,6.68-2.42s4.75.81,6.68,2.42Zm0,3.04c-1.67-2.23-3.89-3.35-6.68-3.35s-5.01,1.12-6.68,3.35v10.88c1.67,2.23,3.89,3.35,6.68,3.35s5.01-1.12,6.68-3.35v-10.88Z"/>
          <path class="cls-1" d="m94.27,124.78c.34,0,.52.17.52.52v1.65h-2.17v-2.17h1.65Z"/>
          <path class="cls-1" d="m111.17,149.32c2.77,0,4.99-1.12,6.68-3.35l2.11.67c-.58.91-1.29,1.71-2.11,2.4-1.94,1.62-4.17,2.42-6.68,2.42h-.03c-2.51,0-4.73-.81-6.65-2.42-.84-.69-1.56-1.49-2.14-2.4v-12.2c.58-.91,1.3-1.71,2.14-2.4,1.93-1.62,4.15-2.42,6.68-2.42s4.75.81,6.68,2.42c.84.69,1.56,1.49,2.14,2.4l-2.14.64c-1.67-2.23-3.89-3.35-6.68-3.35s-5.01,1.12-6.68,3.35v10.88c1.67,2.23,3.89,3.35,6.68,3.35Z"/>
          <path class="cls-1" d="m135.75,139.53l5.26-5.26c-1.63-1.68-3.62-2.53-5.96-2.53-2.78,0-5.01,1.12-6.68,3.35v10.88c1.67,2.23,3.89,3.35,6.68,3.35s4.99-1.12,6.68-3.35l2.11.67c-.58.91-1.29,1.71-2.11,2.4-1.94,1.62-4.17,2.42-6.68,2.42h-.03c-2.51,0-4.73-.81-6.65-2.42-.84-.69-1.56-1.49-2.14-2.4v-12.2c.58-.91,1.3-1.71,2.14-2.4,1.92-1.62,4.15-2.42,6.68-2.42s4.75.81,6.68,2.42c.83.67,1.53,1.45,2.11,2.35l.03.03-6.63,6.63-1.5-1.52Z"/>
        </g>
        <path class="cls-1" d="m44.72,91.95c1.57-2.26,3.65-3.39,6.23-3.39v-2.15c-2.35,0-4.43.81-6.23,2.43-.78.71-1.44,1.52-1.98,2.43v16.54h1.98v-15.86Z"/>
      </g>
    </g>
  </g>
</svg>